<svg xmlns="http://www.w3.org/2000/svg" width="24" height="20" fill="none">
  <path fill="#0D0B0A" d="M11.45.42c.297.147.63.57.854.82 1.92 2.144 2.926 4.875 2.748 7.75-.172 2.781-1.546 5.252-3.608 7.077-.39-.267-.748-.647-1.06-1-1.752-1.981-2.712-4.765-2.545-7.405.173-2.723 1.564-5.448 3.612-7.242Z"/>
  <path fill="#0D0B0A" d="M19.62 4.313c.006.01.013.019.018.03.109.222.14.574.168.821.145 1.284.025 2.572-.426 3.787-1.129 3.038-3.736 5.274-6.62 6.599-.034 0-.01.002-.063-.028.176-.288.422-.546.626-.817.31-.422.592-.866.843-1.327.883-1.625 1.305-3.412 1.304-5.256 0-.523-.012-1.046-.164-1.551.27-.3.602-.553.924-.797 1.036-.784 2.08-1.33 3.39-1.46ZM3.245 4.326c.156.006.313.026.467.05 1.184.18 2.22.81 3.146 1.54.258.204.54.416.735.684-.492 2.528.16 5.178 1.468 7.364.208.347.434.684.675 1.01.116.155.253.296.356.459l-.037.047c-2.154-.921-4.173-2.552-5.472-4.501C3.221 8.934 2.771 6.73 3.245 4.326Z"/>
  <path fill="#0D0B0A" d="M21.728 9.966c.344-.04 1.114-.084 1.402.1.014.042.019.047.02.1.006.2-.126.503-.194.69a8.04 8.04 0 0 1-2.272 3.366c-2.022 1.787-4.643 2.429-7.29 2.259-.5-.053-1.015-.087-1.496-.24 2.218-.683 4.328-2.076 5.856-3.816.376-.428.651-.925 1.017-1.355.693-.817 1.951-1.033 2.957-1.104ZM.543 10.034c1.033-.122 2.436.048 3.287.692.506.382.811 1.092 1.23 1.576a13.076 13.076 0 0 0 4.788 3.49c.392.169.796.344 1.21.446l-.829.139c-2.414.347-4.916-.084-6.982-1.427C1.84 14.035.85 12.78.267 11.215c-.085-.23-.213-.479-.257-.718a.413.413 0 0 1 .079-.35c.13-.095.298-.094.454-.113ZM11.576 16.402c.42.15.843.269 1.284.34.759.123 1.64.087 2.323.483.503.292 1.019.976 1.161 1.543.026.104.019.113-.035.199-.527.19-1.039.145-1.563-.027-1.264-.414-2.551-1.334-3.17-2.538ZM11.338 16.405c.027-.002.053.011.078.019 0 .012 0 .024-.004.036-.064.27-1.105 1.366-1.345 1.555-.83.656-2.062 1.176-3.133 1.048-.028-.006-.068-.014-.094-.026-.058-.026-.094-.048-.11-.11-.04-.168.055-.362.131-.507.245-.47.63-1.02 1.11-1.273.594-.311 1.47-.31 2.129-.428.422-.075.829-.19 1.238-.314Z"/>
</svg>
