<svg aria-hidden="true" style="position: absolute; width: 0; height: 0; overflow: hidden;" version="1.1" xmlns="http://www.w3.org/2000/svg" xmlns:xlink="http://www.w3.org/1999/xlink">
<defs>
<symbol id="icon-Youtube" viewBox="0 0 32 32">
<path d="M28.288 9.984c-0.303-1.108-1.158-1.963-2.243-2.26l-0.022-0.005c-1.997-0.55-10.022-0.563-10.022-0.563s-8.013 0-10.022 0.512c-1.106 0.322-1.956 1.181-2.26 2.268l-0.006 0.023c-0.512 1.997-0.512 6.17-0.512 6.17s0 4.173 0.512 6.157c0.294 1.101 1.152 1.971 2.266 2.266 2.022 0.55 10.022 0.55 10.022 0.55s8.013 0.013 10.022-0.512c1.097-0.309 1.944-1.156 2.247-2.23l0.006-0.023c0.538-2.010 0.538-6.157 0.538-6.157s0.026-4.186-0.512-6.182zM13.44 19.968v-7.68l6.656 3.84-6.656 3.84z"></path>
</symbol>
<symbol id="icon-LinkedIn" viewBox="0 0 32 32">
<path d="M25.361 4.598h-18.72c-1.189 0-2.161 0.973-2.161 2.161v18.72c0 1.188 0.973 2.159 2.161 2.159h18.72c1.188 0 2.159-0.973 2.159-2.159v-18.72c0-1.188-0.973-2.161-2.161-2.161zM13.12 23.318h-2.88v-10.080h2.88v10.080zM11.68 11.798c-0.795 0-1.44-0.645-1.44-1.44s0.645-1.44 1.44-1.44v0c0.795 0 1.44 0.645 1.44 1.44s-0.645 1.44-1.44 1.44v0zM23.2 23.318h-2.88v-5.76c0-0.795-0.645-1.44-1.44-1.44s-1.44 0.645-1.44 1.44v0 5.76h-2.88v-10.080h2.88v1.787c0.594-0.814 1.503-1.787 2.52-1.787 1.792 0 3.24 1.613 3.24 3.601v6.479z"></path>
</symbol>
<symbol id="icon-Instagram" viewBox="0 0 32 32">
<path d="M16 6.669c3.072 0 3.443 0.013 4.646 0.077 0.768 0.003 1.502 0.144 2.181 0.398l-0.043-0.014c0.538 0.218 0.922 0.461 1.331 0.87 0.397 0.397 0.64 0.781 0.858 1.318 0.154 0.41 0.346 1.024 0.397 2.138 0.051 1.216 0.064 1.574 0.064 4.659s0 3.443-0.064 4.646c-0.003 0.768-0.144 1.502-0.398 2.181l0.014-0.043c-0.198 0.518-0.494 0.958-0.869 1.317l-0.001 0.001c-0.41 0.41-0.794 0.653-1.318 0.87-0.41 0.154-1.024 0.346-2.138 0.384-1.216 0.064-1.587 0.077-4.659 0.077s-3.443-0.013-4.646-0.064c-0.77-0.009-1.503-0.154-2.181-0.411l0.044 0.015c-0.522-0.193-0.967-0.485-1.331-0.857l-0.001-0.001c-0.371-0.365-0.663-0.81-0.849-1.306l-0.008-0.025c-0.166-0.397-0.346-1.024-0.397-2.138-0.051-1.216-0.064-1.574-0.064-4.646s0-3.456 0.064-4.659c0.003-0.768 0.144-1.502 0.398-2.181l-0.014 0.043c0.218-0.525 0.474-0.922 0.87-1.318 0.362-0.37 0.802-0.662 1.294-0.849l0.025-0.008c0.41-0.166 1.024-0.346 2.138-0.397 1.216-0.064 1.574-0.077 4.659-0.077zM16 4.595c-3.123 0-3.52 0.013-4.749 0.077-1.229 0.051-2.061 0.256-2.79 0.525-0.807 0.302-1.495 0.756-2.060 1.33l-0.001 0.001c-0.573 0.563-1.026 1.246-1.318 2.009l-0.013 0.039c-0.32 0.826-0.515 1.782-0.537 2.781l-0 0.009c-0.051 1.229-0.064 1.626-0.064 4.749s0.013 3.52 0.064 4.749c0.064 1.229 0.256 2.061 0.538 2.79 0.304 0.802 0.757 1.485 1.33 2.047l0.001 0.001c0.563 0.573 1.246 1.026 2.009 1.318l0.039 0.013c0.827 0.316 1.784 0.507 2.783 0.525l0.008 0c1.229 0.064 1.613 0.077 4.736 0.077 3.136 0 3.533-0.013 4.762-0.077 1.216-0.051 2.048-0.256 2.79-0.525 0.797-0.306 1.476-0.759 2.034-1.33l0.001-0.001c0.64-0.64 1.024-1.28 1.331-2.048 0.316-0.827 0.507-1.784 0.525-2.783l0-0.008c0.064-1.229 0.077-1.613 0.077-4.736s-0.013-3.52-0.064-4.749c-0.020-1.012-0.215-1.973-0.557-2.861l0.019 0.058c-0.293-0.804-0.743-1.488-1.317-2.047l-0.001-0.001c-0.564-0.569-1.247-1.017-2.009-1.306l-0.039-0.013c-0.826-0.321-1.782-0.516-2.781-0.537l-0.009-0c-1.229-0.064-1.626-0.077-4.749-0.077z"></path>
<path d="M16 10.202c-3.266 0-5.914 2.648-5.914 5.914s2.648 5.914 5.914 5.914v0c3.266 0 5.914-2.648 5.914-5.914s-2.648-5.914-5.914-5.914v0zM16 19.955c-2.121 0-3.84-1.719-3.84-3.84s1.719-3.84 3.84-3.84v0c2.121 0 3.84 1.719 3.84 3.84s-1.719 3.84-3.84 3.84v0zM23.526 9.971c0 0.763-0.619 1.382-1.382 1.382s-1.382-0.619-1.382-1.382v0c0-0.763 0.619-1.382 1.382-1.382s1.382 0.619 1.382 1.382v0z"></path>
</symbol>
<symbol id="icon-menu" viewBox="0 0 32 32">
<path d="M5.333 8h21.333v2.667h-21.333v-2.667zM5.333 14.667h21.333v2.667h-21.333v-2.667zM5.333 21.333h21.333v2.667h-21.333v-2.667z"></path>
</symbol>
<symbol id="icon-Facebook" viewBox="0 0 32 32">
<path d="M28.8 16.507c0-7.113-5.731-12.878-12.8-12.878s-12.8 5.765-12.8 12.878c0 6.428 4.681 11.756 10.801 12.722v-8.998h-3.251v-3.724h3.251v-2.836c0-3.228 1.91-5.011 4.835-5.011 1.4 0 2.865 0.252 2.865 0.252v3.169h-1.613c-1.591 0-2.086 0.992-2.086 2.010v2.417h3.549l-0.567 3.722h-2.982v9c6.118-0.966 10.799-6.294 10.799-12.722z"></path>
</symbol>
</defs>
</svg>
