<svg aria-hidden="true" style="position: absolute; width: 0; height: 0; overflow: hidden;" version="1.1" xmlns="http://www.w3.org/2000/svg" xmlns:xlink="http://www.w3.org/1999/xlink">
<defs>
<symbol id="icon-modal" viewBox="0 0 32 32">
<path d="M21.589 8.459l-5.657 5.656-5.656-5.656-1.885 1.885 5.656 5.656-5.656 5.656 1.885 1.885 5.656-5.656 5.657 5.656 1.885-1.885-5.656-5.656 5.656-5.656-1.885-1.885z"></path>
</symbol>
<symbol id="icon-twitter" viewBox="0 0 32 32">
<path d="M22.901 5.657h3.68l-8.040 9.037 9.459 12.297h-7.406l-5.801-7.458-6.637 7.458h-3.682l8.6-9.666-9.074-11.668h7.594l5.243 6.817 6.064-6.817zM21.61 24.824h2.039l-13.163-17.115h-2.188l13.312 17.115z"></path>
</symbol>
<symbol id="icon-logo" viewBox="0 0 108 32">
<path d="M19.546 1.101c0.486 0.243 1.024 0.922 1.382 1.318 2.765 3.016 4.459 7.053 4.459 11.486 0 0.354-0.011 0.706-0.032 1.055l0.002-0.048c-0.365 4.587-2.539 8.605-5.801 11.385l-0.023 0.019c-0.627-0.422-1.203-1.037-1.702-1.613-2.816-3.2-4.378-7.68-4.096-11.93 0.376-4.663 2.533-8.759 5.781-11.659l0.017-0.015z"></path>
<path d="M32.717 7.373l0.026 0.051c0.179 0.358 0.23 0.922 0.269 1.318 0.063 0.484 0.099 1.043 0.099 1.611 0 1.613-0.29 3.158-0.82 4.586l0.030-0.091c-1.818 4.902-6.016 8.499-10.662 10.637-0.051 0-0.013 0-0.102-0.038 0.282-0.474 0.678-0.896 1.011-1.318 2.159-2.886 3.457-6.525 3.457-10.466 0-0.051-0-0.102-0.001-0.153l0 0.008c0-0.845-0.013-1.69-0.256-2.496 0.435-0.486 0.96-0.896 1.485-1.28 1.493-1.252 3.361-2.102 5.413-2.363l0.052-0.005zM6.323 7.398c0.256 0 0.512 0.038 0.755 0.077 1.907 0.294 3.584 1.306 5.069 2.483 0.41 0.333 0.87 0.678 1.178 1.101-0.781 4.070 0.256 8.346 2.368 11.866 0.346 0.563 0.704 1.114 1.088 1.638 0.192 0.256 0.41 0.474 0.576 0.73l-0.051 0.077c-3.636-1.587-6.629-4.070-8.787-7.177l-0.044-0.068c-1.535-2.192-2.454-4.914-2.454-7.851 0-1.019 0.11-2.011 0.32-2.967l-0.017 0.091z"></path>
<path d="M36.109 16.486c0.563-0.064 1.792-0.128 2.266 0.166 0.026 0.064 0.026 0.077 0.026 0.154 0.013 0.333-0.205 0.819-0.307 1.114-0.773 2.161-2.030 3.987-3.647 5.415l-0.014 0.012c-3.264 2.88-7.488 3.917-11.75 3.635-0.806-0.077-1.638-0.128-2.406-0.384 3.571-1.101 6.963-3.341 9.434-6.144 0.602-0.691 1.050-1.498 1.638-2.176 1.114-1.331 3.149-1.677 4.762-1.792zM1.971 16.602c1.664-0.205 3.917 0.077 5.299 1.114 0.806 0.614 1.306 1.754 1.971 2.534 2.080 2.401 4.659 4.312 7.582 5.579l0.136 0.053c0.64 0.256 1.28 0.55 1.958 0.717l-1.344 0.218c-3.891 0.563-7.923-0.128-11.251-2.304-2.196-1.425-3.87-3.492-4.773-5.933l-0.027-0.083c-0.128-0.371-0.346-0.768-0.41-1.152-0.051-0.23 0-0.384 0.128-0.563 0.205-0.154 0.474-0.154 0.73-0.179zM69.926 13.235c1.306-0.013 2.714-0.128 3.994 0.064 0.832 0.115 1.664 0.41 2.176 1.114 0.254 0.391 0.405 0.869 0.405 1.382 0 0.172-0.017 0.34-0.049 0.503l0.003-0.016c-0.128 0.768-0.614 1.203-1.229 1.613l0.435 0.205c0.538 0.294 0.922 0.794 1.075 1.382 0.218 0.806 0.038 1.638-0.358 2.355-0.090 0.141-0.192 0.256-0.32 0.384-1.229 1.152-3.93 0.934-5.517 0.922-0.307 0-0.704 0.026-0.934-0.218-0.051-0.093-0.083-0.202-0.090-0.318l-0-0.002c-0.102-1.702 0-3.482 0-5.197 0-1.216-0.128-2.79 0.026-3.968 0.128-0.154 0.205-0.154 0.384-0.205zM74.278 19.251c-0.691-0.461-1.843-0.333-2.65-0.333v2.214c0.896 0 1.92 0.141 2.701-0.333 0.192-0.256 0.384-0.666 0.32-1.011-0.039-0.238-0.182-0.436-0.38-0.548l-0.004-0.002zM73.946 15.309c-0.653-0.397-1.574-0.294-2.304-0.294v2.125c0.781 0 1.728 0.128 2.419-0.32 0.179-0.269 0.358-0.64 0.294-0.986-0.051-0.256-0.205-0.397-0.41-0.525zM57.83 15.539c0.205-0.026 0.397 0 0.602 0.026 0.589 0.128 0.883 0.55 1.19 1.024 0.026-0.166 0.038-0.346 0.077-0.499s0.141-0.279 0.279-0.344l0.003-0.001c0.23-0.128 0.755-0.128 0.998-0.051 0.179 0.077 0.384 0.23 0.448 0.422 0.192 0.563 0.128 6.118 0 6.874-0.064 0.512-0.218 0.998-0.474 1.434-0.397 0.704-1.101 1.165-1.869 1.382-0.361 0.108-0.775 0.17-1.204 0.17-0.78 0-1.513-0.205-2.146-0.565l0.022 0.011c-0.435-0.256-0.64-0.602-0.755-1.088 0.038-0.179 0.077-0.358 0.23-0.461 0.499-0.384 1.549 0.256 2.099 0.346 0.461 0.090 0.973 0.038 1.357-0.256 0.64-0.486 0.755-1.382 0.858-2.112-0.422 0.461-0.832 0.832-1.472 0.986-0.678 0.166-1.434 0.051-2.022-0.346-0.781-0.512-1.216-1.395-1.37-2.304-0.052-0.257-0.082-0.553-0.082-0.856 0-0.909 0.269-1.756 0.733-2.464l-0.011 0.017c0.627-0.87 1.498-1.19 2.509-1.344zM57.958 17.203c-0.512 0.192-0.794 0.435-1.024 0.947-0.256 0.627-0.269 1.536 0 2.15 0.128 0.333 0.41 0.691 0.768 0.806 0.23 0.077 0.512 0.038 0.742 0.026 0.422-0.154 0.666-0.333 0.858-0.742 0.307-0.627 0.32-1.51 0.090-2.163-0.128-0.384-0.41-0.755-0.794-0.922-0.165-0.066-0.357-0.105-0.557-0.105-0.029 0-0.058 0.001-0.087 0.002l0.004-0zM100.288 15.59c0.512-0.064 0.998-0.038 1.472 0.154 0.653 0.269 0.998 0.768 1.254 1.408 0.128-0.346 0.282-0.678 0.512-0.96 0.384-0.435 0.858-0.602 1.421-0.64 0.653-0.013 1.318 0.128 1.792 0.602 0.32 0.307 0.512 0.717 0.614 1.139 0.282 1.126 0.128 3.533 0.128 4.8 0 0.192 0.026 0.806-0.128 0.922-0.256 0.192-1.178 0.154-1.498 0.102-0.179-0.026-0.294-0.128-0.384-0.294-0.115-0.256-0.051-0.73-0.051-1.024 0.013-0.934 0.256-3.533-0.307-4.224-0.124-0.148-0.306-0.245-0.51-0.256l-0.002-0c-0.031-0.003-0.067-0.004-0.103-0.004-0.302 0-0.579 0.108-0.795 0.288l0.002-0.002c-0.768 0.768-0.512 3.456-0.512 4.506l-0.013 0.64c-0.013 0.102-0.051 0.218-0.128 0.256-0.333 0.192-1.126 0.166-1.498 0.077-0.179-0.038-0.256-0.102-0.333-0.282-0.115-0.307-0.051-0.768-0.038-1.075 0-0.947 0.23-3.29-0.256-3.994-0.137-0.201-0.35-0.343-0.596-0.383l-0.005-0.001c-0.063-0.014-0.136-0.022-0.21-0.022-0.229 0-0.441 0.075-0.612 0.203l0.003-0.002c-0.934 0.742-0.678 3.328-0.666 4.403 0 0.256 0.051 0.627 0 0.87-0.038 0.090-0.064 0.154-0.154 0.218-0.294 0.192-1.114 0.154-1.472 0.077-0.154-0.026-0.256-0.128-0.32-0.256-0.090-0.192-0.128-5.824-0.090-6.387 0.013-0.154 0.051-0.32 0.128-0.461 0.077-0.179 0.23-0.294 0.422-0.358 0.448-0.141 0.998 0.013 1.408 0.23 0.090 0.358 0.013 0.819 0 1.19l0.141-0.282c0.346-0.678 0.678-0.947 1.382-1.178zM92.186 15.616c0.023-0.001 0.050-0.001 0.077-0.001 2.096 0 3.796 1.7 3.796 3.796 0 2.069-1.656 3.752-3.715 3.795l-0.004 0c-0.023 0-0.050 0.001-0.077 0.001-2.093 0-3.79-1.697-3.79-3.79 0-2.066 1.653-3.746 3.709-3.789l0.004-0zM91.93 17.28c-0.55 0.243-0.858 0.512-1.075 1.101-0.256 0.704-0.218 1.664 0.115 2.342 0.179 0.358 0.461 0.64 0.845 0.768 0.256 0.090 0.512 0.102 0.768 0.038 0.538-0.218 0.858-0.512 1.075-1.050 0.282-0.691 0.282-1.6-0.038-2.278-0.192-0.422-0.55-0.768-0.998-0.896-0.134-0.035-0.288-0.055-0.446-0.055-0.086 0-0.172 0.006-0.255 0.017l0.010-0.001zM50.176 15.629c0.052-0.002 0.112-0.004 0.173-0.004 2.095 0 3.793 1.698 3.793 3.793 0 2.034-1.601 3.694-3.611 3.788l-0.008 0c-0.050 0.002-0.108 0.004-0.166 0.004-2.095 0-3.792-1.698-3.792-3.792 0-2.036 1.604-3.697 3.618-3.788l0.008-0zM50.778 17.318c-0.144-0.046-0.309-0.073-0.48-0.073-0.093 0-0.183 0.008-0.272 0.023l0.010-0.001c-0.563 0.282-0.896 0.563-1.101 1.178-0.243 0.691-0.205 1.677 0.141 2.33 0.242 0.481 0.731 0.806 1.297 0.806 0.117 0 0.23-0.014 0.339-0.040l-0.010 0.002c0.525-0.23 0.845-0.512 1.050-1.062 0.121-0.317 0.191-0.683 0.191-1.066 0-0.443-0.094-0.864-0.263-1.245l0.008 0.020c-0.176-0.401-0.498-0.711-0.898-0.867l-0.011-0.004z"></path>
<path d="M83.699 15.68c0.226-0.048 0.486-0.076 0.753-0.076 2.093 0 3.789 1.696 3.789 3.789 0 1.934-1.449 3.529-3.32 3.76l-0.018 0.002c-0.135 0.017-0.292 0.027-0.45 0.027-2.093 0-3.789-1.696-3.789-3.789 0-1.826 1.292-3.35 3.011-3.709l0.025-0.004zM84.006 17.267c-0.563 0.243-0.896 0.512-1.114 1.088-0.256 0.678-0.243 1.626 0.077 2.291 0.192 0.397 0.512 0.73 0.934 0.858 0.218 0.077 0.461 0.077 0.678 0.051 0.563-0.243 0.896-0.512 1.126-1.088 0.256-0.678 0.256-1.613-0.051-2.266-0.183-0.4-0.509-0.709-0.91-0.866l-0.011-0.004c-0.154-0.049-0.331-0.077-0.515-0.077-0.076 0-0.15 0.005-0.224 0.014l0.009-0.001zM64.768 15.59c0.474-0.051 0.934-0.038 1.408 0.064 0.704 0.166 1.293 0.576 1.664 1.216 0.192 0.346 0.294 0.717 0.358 1.101 0.077 0.602 0.128 4.378 0 4.902-0.101 0.127-0.25 0.213-0.42 0.23l-0.003 0c-0.294 0.064-0.96 0.102-1.203-0.128-0.218-0.192-0.179-0.602-0.179-0.87-0.358 0.512-0.717 0.947-1.357 1.114-0.159 0.034-0.342 0.053-0.529 0.053-0.552 0-1.065-0.168-1.49-0.456l0.009 0.006c-0.256-0.243-0.474-0.499-0.589-0.845-0.192-0.576-0.128-1.37 0.179-1.907 0.717-1.306 2.432-1.229 3.674-1.587l0.077-0.026c-0.038-0.154-0.090-0.32-0.154-0.474-0.717-1.626-2.47 0.154-3.328-0.294-0.168-0.1-0.29-0.263-0.332-0.456l-0.001-0.005c-0.064-0.256 0-0.41 0.128-0.614 0.474-0.691 1.331-0.87 2.086-1.024zM66.291 19.942c-0.512 0.154-1.498 0.307-1.805 0.781-0.052 0.086-0.083 0.19-0.083 0.301 0 0.081 0.016 0.158 0.046 0.228l-0.001-0.004c0.038 0.128 0.128 0.23 0.205 0.32 0.538 0.038 0.883 0 1.28-0.384 0.256-0.218 0.486-0.576 0.474-0.934 0-0.090-0.026-0.166-0.051-0.256l-0.064-0.038zM43.584 16.998c0.179-0.589 1.638-3.418 2.099-3.686 0.23-0.128 1.51-0.154 1.766-0.038 0.166 0.077 0.192 0.128 0.256 0.269-0.128 0.742-1.741 3.2-2.227 3.994l-0.832 1.408c0 0.832 0.141 3.405-0.141 4.006-0.085 0.073-0.188 0.126-0.302 0.153l-0.005 0.001c-0.397 0.090-1.178 0.064-1.536-0.154-0.256-0.358-0.128-3.302-0.128-3.955-0.422-0.678-3.2-5.12-3.123-5.542 0.090-0.128 0.154-0.154 0.294-0.218 0.474-0.013 1.421-0.128 1.805 0.102 0.512 0.294 1.882 3.046 2.074 3.661zM77.939 13.235c0.486-0.013 1.28-0.128 1.715 0.128 0.128 0.794 0.064 1.664 0.077 2.47v3.776c0 0.986 0.102 2.176-0.026 3.136-0.013 0.192-0.128 0.256-0.282 0.371-0.512 0.013-1.293 0.141-1.715-0.192-0.102-0.384-0.166-9.088-0.064-9.434 0.038-0.166 0.154-0.192 0.294-0.256zM19.75 26.854c0.587 0.223 1.284 0.414 2.003 0.54l0.071 0.010c1.216 0.205 2.637 0.141 3.738 0.781 0.883 0.582 1.543 1.441 1.86 2.451l0.009 0.032c0.051 0.166 0.038 0.192-0.051 0.32-0.845 0.307-1.664 0.243-2.522-0.038-2.198-0.697-3.986-2.153-5.097-4.053l-0.023-0.043zM19.366 26.867l0.128 0.026v0.064c-0.631 0.954-1.349 1.778-2.163 2.497l-0.013 0.012c-1.27 1.056-2.918 1.697-4.715 1.697-0.12 0-0.239-0.003-0.357-0.008l0.017 0.001-0.141-0.051c-0.102-0.038-0.154-0.077-0.179-0.179-0.064-0.256 0.090-0.576 0.205-0.806 0.397-0.768 1.024-1.651 1.792-2.048 0.96-0.512 2.368-0.512 3.43-0.704 0.678-0.115 1.331-0.294 1.997-0.512z"></path>
</symbol>
<symbol id="icon-Youtube" viewBox="0 0 32 32">
<path d="M28.288 9.984c-0.303-1.108-1.158-1.963-2.243-2.26l-0.022-0.005c-1.997-0.55-10.022-0.563-10.022-0.563s-8.013 0-10.022 0.512c-1.106 0.322-1.956 1.181-2.26 2.268l-0.006 0.023c-0.512 1.997-0.512 6.17-0.512 6.17s0 4.173 0.512 6.157c0.294 1.101 1.152 1.971 2.266 2.266 2.022 0.55 10.022 0.55 10.022 0.55s8.013 0.013 10.022-0.512c1.097-0.309 1.944-1.156 2.247-2.23l0.006-0.023c0.538-2.010 0.538-6.157 0.538-6.157s0.026-4.186-0.512-6.182zM13.44 19.968v-7.68l6.656 3.84-6.656 3.84z"></path>
</symbol>
<symbol id="icon-LinkedIn" viewBox="0 0 32 32">
<path d="M25.361 4.598h-18.72c-1.189 0-2.161 0.973-2.161 2.161v18.72c0 1.188 0.973 2.159 2.161 2.159h18.72c1.188 0 2.159-0.973 2.159-2.159v-18.72c0-1.188-0.973-2.161-2.161-2.161zM13.12 23.318h-2.88v-10.080h2.88v10.080zM11.68 11.798c-0.795 0-1.44-0.645-1.44-1.44s0.645-1.44 1.44-1.44v0c0.795 0 1.44 0.645 1.44 1.44s-0.645 1.44-1.44 1.44v0zM23.2 23.318h-2.88v-5.76c0-0.795-0.645-1.44-1.44-1.44s-1.44 0.645-1.44 1.44v0 5.76h-2.88v-10.080h2.88v1.787c0.594-0.814 1.503-1.787 2.52-1.787 1.792 0 3.24 1.613 3.24 3.601v6.479z"></path>
</symbol>
<symbol id="icon-Instagram" viewBox="0 0 32 32">
<path d="M16 6.669c3.072 0 3.443 0.013 4.646 0.077 0.768 0.003 1.502 0.144 2.181 0.398l-0.043-0.014c0.538 0.218 0.922 0.461 1.331 0.87 0.397 0.397 0.64 0.781 0.858 1.318 0.154 0.41 0.346 1.024 0.397 2.138 0.051 1.216 0.064 1.574 0.064 4.659s0 3.443-0.064 4.646c-0.003 0.768-0.144 1.502-0.398 2.181l0.014-0.043c-0.198 0.518-0.494 0.958-0.869 1.317l-0.001 0.001c-0.41 0.41-0.794 0.653-1.318 0.87-0.41 0.154-1.024 0.346-2.138 0.384-1.216 0.064-1.587 0.077-4.659 0.077s-3.443-0.013-4.646-0.064c-0.77-0.009-1.503-0.154-2.181-0.411l0.044 0.015c-0.522-0.193-0.967-0.485-1.331-0.857l-0.001-0.001c-0.371-0.365-0.663-0.81-0.849-1.306l-0.008-0.025c-0.166-0.397-0.346-1.024-0.397-2.138-0.051-1.216-0.064-1.574-0.064-4.646s0-3.456 0.064-4.659c0.003-0.768 0.144-1.502 0.398-2.181l-0.014 0.043c0.218-0.525 0.474-0.922 0.87-1.318 0.362-0.37 0.802-0.662 1.294-0.849l0.025-0.008c0.41-0.166 1.024-0.346 2.138-0.397 1.216-0.064 1.574-0.077 4.659-0.077zM16 4.595c-3.123 0-3.52 0.013-4.749 0.077-1.229 0.051-2.061 0.256-2.79 0.525-0.807 0.302-1.495 0.756-2.060 1.33l-0.001 0.001c-0.573 0.563-1.026 1.246-1.318 2.009l-0.013 0.039c-0.32 0.826-0.515 1.782-0.537 2.781l-0 0.009c-0.051 1.229-0.064 1.626-0.064 4.749s0.013 3.52 0.064 4.749c0.064 1.229 0.256 2.061 0.538 2.79 0.304 0.802 0.757 1.485 1.33 2.047l0.001 0.001c0.563 0.573 1.246 1.026 2.009 1.318l0.039 0.013c0.827 0.316 1.784 0.507 2.783 0.525l0.008 0c1.229 0.064 1.613 0.077 4.736 0.077 3.136 0 3.533-0.013 4.762-0.077 1.216-0.051 2.048-0.256 2.79-0.525 0.797-0.306 1.476-0.759 2.034-1.33l0.001-0.001c0.64-0.64 1.024-1.28 1.331-2.048 0.316-0.827 0.507-1.784 0.525-2.783l0-0.008c0.064-1.229 0.077-1.613 0.077-4.736s-0.013-3.52-0.064-4.749c-0.020-1.012-0.215-1.973-0.557-2.861l0.019 0.058c-0.293-0.804-0.743-1.488-1.317-2.047l-0.001-0.001c-0.564-0.569-1.247-1.017-2.009-1.306l-0.039-0.013c-0.826-0.321-1.782-0.516-2.781-0.537l-0.009-0c-1.229-0.064-1.626-0.077-4.749-0.077z"></path>
<path d="M16 10.202c-3.266 0-5.914 2.648-5.914 5.914s2.648 5.914 5.914 5.914v0c3.266 0 5.914-2.648 5.914-5.914s-2.648-5.914-5.914-5.914v0zM16 19.955c-2.121 0-3.84-1.719-3.84-3.84s1.719-3.84 3.84-3.84v0c2.121 0 3.84 1.719 3.84 3.84s-1.719 3.84-3.84 3.84v0zM23.526 9.971c0 0.763-0.619 1.382-1.382 1.382s-1.382-0.619-1.382-1.382v0c0-0.763 0.619-1.382 1.382-1.382s1.382 0.619 1.382 1.382v0z"></path>
</symbol>
<symbol id="icon-menu" viewBox="0 0 32 32">
<path d="M5.333 8h21.333v2.667h-21.333v-2.667zM5.333 14.667h21.333v2.667h-21.333v-2.667zM5.333 21.333h21.333v2.667h-21.333v-2.667z"></path>
</symbol>
<symbol id="icon-Facebook" viewBox="0 0 32 32">
<path d="M28.8 16.507c0-7.113-5.731-12.878-12.8-12.878s-12.8 5.765-12.8 12.878c0 6.428 4.681 11.756 10.801 12.722v-8.998h-3.251v-3.724h3.251v-2.836c0-3.228 1.91-5.011 4.835-5.011 1.4 0 2.865 0.252 2.865 0.252v3.169h-1.613c-1.591 0-2.086 0.992-2.086 2.010v2.417h3.549l-0.567 3.722h-2.982v9c6.118-0.966 10.799-6.294 10.799-12.722z"></path>
</symbol>
</defs>
</svg>
